<?xml version="1.0" encoding="UTF-8"?>
<svg viewBox="0 0 600 600" xmlns="http://www.w3.org/2000/svg" role="img" aria-label="Logo Royaume des Mygales">
  <defs>
    <radialGradient id="g" cx="30%" cy="30%">
      <stop offset="0%" stop-color="#ffd6ff"/>
      <stop offset="70%" stop-color="#6b0066"/>
      <stop offset="100%" stop-color="#090006"/>
    </radialGradient>
  </defs>
  <rect width="100%" height="100%" fill="#000000"/>
  <g transform="translate(300,300)">
    <ellipse cx="0" cy="60" rx="110" ry="150" fill="url(#g)" opacity="0.95"/>
    <circle cx="0" cy="-30" r="70" fill="#3a003a"/>
    <g fill="#ffd6ff" opacity="0.12">
      <ellipse cx="-18" cy="-40" rx="10" ry="14"/>
      <ellipse cx="18" cy="-40" rx="10" ry="14"/>
    </g>
    <g stroke="#8b2bff" stroke-width="9" stroke-linecap="round" fill="none" opacity="0.95">
      <path d="M-90 10 C-160 -20 -200 -90 -240 -110"/>
      <path d="M-80 70 C-160 80 -200 140 -240 160"/>
      <path d="M-60 120 C-120 170 -150 220 -170 260"/>
      <path d="M90 10 C160 -20 200 -90 240 -110"/>
      <path d="M80 70 C160 80 200 140 240 160"/>
      <path d="M60 120 C120 170 150 220 170 260"/>
    </g>
    <circle cx="0" cy="-20" r="140" fill="none" stroke="#4b0061" stroke-width="2" opacity="0.06"/>
  </g>
</svg>